<svg xmlns="http://www.w3.org/2000/svg" viewBox="0 0 64 64">
  <circle cx="32" cy="32" r="30" fill="#3AA0E8"/>
  <path fill="#4CAF50" d="M28 10c3 1 4 4 7 4s5-2 7 0 0 5 3 6 6 0 6 3-4 3-4 6 3 5 1 7-5 1-6 3-2 5-5 5-5-2-8-3-6 1-9-1-2-5-4-7-5-2-5-5 3-3 3-6-2-4 0-6 4-1 6-3 5-4 8-3z"/>
  <path fill="#4CAF50" d="M12 34c2 0 3 2 5 3s4 0 5 2 0 5-2 5-5-1-7-3-3-4-3-5 1-2 2-2z"/>
  <path fill="#66BB6A" d="M44 42c2-1 5 0 5 2s-2 4-4 4-4-2-4-3 1-2 3-3z"/>
  <path fill="#66BB6A" d="M18 48c2 0 4 1 4 3s-2 2-4 2-4-2-3-3 1-2 3-2z"/>
  <ellipse cx="22" cy="20" rx="7" ry="3" fill="#7FCBF0" opacity=".5"/>
  <circle cx="32" cy="32" r="30" fill="none" stroke="#1E6FA8" stroke-width="1.5"/>
</svg>
